<svg width="348" height="368" viewBox="0 0 348 368" fill="none" xmlns="http://www.w3.org/2000/svg">
<path d="M348 367H0V368H348V367Z" fill="#CCCCCC"/>
<path d="M348 315H0V316H348V315Z" fill="#CCCCCC"/>
<path d="M348 262H0V263H348V262Z" fill="#CCCCCC"/>
<path d="M348 210H0V211H348V210Z" fill="#CCCCCC"/>
<path d="M348 157H0V158H348V157Z" fill="#CCCCCC"/>
<path d="M348 105H0V106H348V105Z" fill="#CCCCCC"/>
<path d="M348 52H0V53H348V52Z" fill="#CCCCCC"/>
<path d="M348 0H0V1H348V0Z" fill="#CCCCCC"/>
<path d="M348 341H0V342H348V341Z" fill="#EBEBEB"/>
<path d="M348 288H0V289H348V288Z" fill="#EBEBEB"/>
<path d="M348 236H0V237H348V236Z" fill="#EBEBEB"/>
<path d="M348 184H0V185H348V184Z" fill="#EBEBEB"/>
<path d="M348 131H0V132H348V131Z" fill="#EBEBEB"/>
<path d="M348 79H0V80H348V79Z" fill="#EBEBEB"/>
<path d="M348 26H0V27H348V26Z" fill="#EBEBEB"/>
<path d="M79 158H9V367H79V158Z" fill="#96A5BD"/>
<path d="M165 1H96V367H165V1Z" fill="#96A5BD"/>
<path d="M252 263H183V367H252V263Z" fill="#96A5BD"/>
<path d="M339 158H269V367H339V158Z" fill="#96A5BD"/>
<path d="M348 367H0V368H348V367Z" fill="#333333"/>
</svg>
